<?xml version="1.0" encoding="UTF-8" standalone="no"?>
<!DOCTYPE svg PUBLIC "-//W3C//DTD SVG 1.1//EN" "http://www.w3.org/Graphics/SVG/1.1/DTD/svg11.dtd">
<svg width="100%" height="100%" viewBox="0 0 494 494" version="1.1" xmlns="http://www.w3.org/2000/svg" xmlns:xlink="http://www.w3.org/1999/xlink" xml:space="preserve" xmlns:serif="http://www.serif.com/" style="fill-rule:evenodd;clip-rule:evenodd;stroke-linecap:round;stroke-linejoin:round;stroke-miterlimit:1.5;">
    <g transform="matrix(1,0,0,1,-164.393,-46.3404)">
        <g transform="matrix(1,0,0,1,5.4157,32.2776)">
            <g>
                <g transform="matrix(1,0,0,1,3.22409,2.79031)">
                    <path d="M237.336,251.506C237.336,251.506 218.426,260.71 200.491,274.307C200.491,274.307 196.909,278.667 201.048,281.706C201.048,281.706 262.196,343.17 358.867,310.801C358.867,310.801 280.062,283.183 249.118,246.164L237.336,251.506" style="fill:rgb(68,68,68);stroke:rgb(68,68,68);stroke-width:1px;"/>
                </g>
                <path d="M378.03,307.557C380.226,308.138 369.287,335.955 379.942,361.165C379.942,361.165 374.1,386.101 363.447,419.097C363.447,419.097 358.381,426.368 366.553,432.249C366.553,432.249 399.549,453.192 442.926,450.855C442.926,450.855 450.479,450.657 449.222,439.416C449.222,439.416 436.103,415.69 418.696,354.91C418.696,354.91 462.229,330.31 470.824,267.617C470.824,267.617 470.172,255.748 479.184,246.238C479.184,246.238 491.016,230.274 504.913,231.817C504.913,231.817 565.21,225.633 613.647,224.665C613.647,224.665 579.882,218.635 494.323,217.148C494.323,217.148 492.705,219.268 480.858,213.889C480.858,213.889 455.293,196.137 433.605,214.012C433.605,214.012 418.386,223.501 418.553,250.372C418.553,250.372 412.682,253.044 407.624,259.377C407.624,259.377 393.156,232.327 331.808,193.291C331.808,193.291 286.066,163.536 230.292,162.977C230.292,162.977 218.301,162.988 221.319,177.461C221.319,177.461 228.279,206.445 289.003,261.076C294.089,265.651 299.567,269.77 305.374,273.387C320.251,282.6 351.185,300.462 378.03,307.557Z" style="fill:rgb(68,68,68);stroke:rgb(68,68,68);stroke-width:1px;"/>
                <g transform="matrix(1,0,0,1,-11.6745,-7.15554)">
                    <path d="M375.688,368.061C375.688,368.061 355.708,390.717 349.504,400.45C349.504,400.45 346.647,405.771 350.664,411.338C350.664,411.338 353.56,414.753 359.435,417.348C359.435,417.348 366.279,402.394 375.688,368.061" style="fill:rgb(68,68,68);stroke:rgb(68,68,68);stroke-width:1px;"/>
                </g>
            </g>
            <g transform="matrix(0.788257,-3.28178e-17,3.37417e-17,0.81045,106.238,13.2635)">
                <ellipse cx="380.256" cy="305.755" rx="298.126" ry="289.963" style="fill:none;stroke:rgb(68,68,68);stroke-width:30.02px;"/>
            </g>
        </g>
    </g>
</svg>
