<?xml version="1.0" encoding="UTF-8"?>
<svg width="940px" height="940px" viewBox="0 0 940 940" version="1.1" xmlns="http://www.w3.org/2000/svg" xmlns:xlink="http://www.w3.org/1999/xlink">
    <!-- Generator: Sketch 56.3 (81716) - https://sketch.com -->
    <title>Group</title>
    <desc>Created with Sketch.</desc>
    <g id="Page-1" stroke="none" stroke-width="1" fill="none" fill-rule="evenodd">
        <g id="Artboard" transform="translate(-306.000000, -267.000000)">
            <g id="Group" transform="translate(306.000000, 267.000000)">
                <circle id="Oval" fill="#444444" cx="470" cy="470" r="470"></circle>
                <circle id="Oval" fill="#FFFFFF" cx="470" cy="470" r="370"></circle>
                <g id="bookmark-solid" transform="translate(278.000000, 214.000000)" fill="#444444" fill-rule="nonzero">
                    <path d="M0,512 L0,48 C0,21.49 21.49,0 48,0 L336,0 C362.51,0 384,21.49 384,48 L384,512 L192,400 L0,512 Z" id="Path"></path>
                </g>
                <g id="bolt-solid" transform="translate(376.000000, 194.000000)" fill="#FFFFFF" fill-rule="nonzero">
                    <path d="M173.904238,107.1875 L106.107509,107.1875 L131.134724,20.2316406 C133.484697,10.0488281 126.728524,0 117.504879,0 L32.9058405,0 C25.8559206,0 19.8634887,5.96230469 18.9234994,13.934375 L0.123713045,174.715625 C-0.992524269,184.3625 5.58740095,192.9375 14.1060541,192.9375 L83.8415116,192.9375 L56.7580694,323.237305 C54.6430935,333.420117 61.458016,343 70.4466638,343 C75.3816078,343 80.0815544,340.052344 82.666525,334.960938 L186.06535,131.304688 C191.529038,120.65293 184.772865,107.1875 173.904238,107.1875 Z" id="Path"></path>
                </g>
            </g>
        </g>
    </g>
</svg>